<svg width="15" height="16" viewBox="0 0 15 16" fill="none" xmlns="http://www.w3.org/2000/svg">
<path d="M3.07224 7.51406C3.07223 7.43154 3.08852 7.34982 3.12018 7.27361C3.15184 7.1974 3.19825 7.1282 3.25673 7.06998C3.31521 7.01175 3.38463 6.96566 3.46098 6.93434C3.53733 6.90302 3.61912 6.8871 3.70164 6.88749L4.74512 6.89091C4.9115 6.89091 5.07106 6.957 5.18871 7.07465C5.30636 7.1923 5.37245 7.35186 5.37245 7.51824V11.464C5.49 11.4292 5.64075 11.392 5.8059 11.3533C5.92057 11.3263 6.02276 11.2614 6.09591 11.169C6.16906 11.0767 6.20888 10.9624 6.20891 10.8446V5.95018C6.2089 5.86779 6.22513 5.7862 6.25665 5.71007C6.28818 5.63394 6.33439 5.56477 6.39265 5.50651C6.4509 5.44824 6.52007 5.40202 6.59619 5.37048C6.67231 5.33894 6.7539 5.32271 6.83629 5.3227H7.88183C8.0482 5.32273 8.20775 5.38883 8.3254 5.50647C8.44304 5.62411 8.50914 5.78366 8.50917 5.95003V10.4928C8.50917 10.4928 8.77083 10.3869 9.0259 10.2792C9.12061 10.2392 9.20143 10.1721 9.25828 10.0864C9.31513 10.0007 9.34549 9.90015 9.34558 9.79731V4.38157C9.34557 4.29919 9.36179 4.21762 9.39331 4.14151C9.42483 4.06539 9.47104 3.99624 9.52929 3.93798C9.58754 3.87973 9.65669 3.83352 9.7328 3.80199C9.80891 3.77047 9.89048 3.75424 9.97286 3.75424H11.0184C11.1848 3.75424 11.3444 3.82033 11.462 3.93798C11.5797 4.05562 11.6458 4.21519 11.6458 4.38157V8.84114C12.5522 8.18422 13.4709 7.39405 14.2 6.44397C14.3057 6.30606 14.3757 6.14411 14.4037 5.97257C14.4316 5.80103 14.4167 5.62524 14.3602 5.46088C13.8669 4.02331 12.9417 2.77319 11.7109 1.88145C10.4802 0.989711 9.00406 0.499883 7.48436 0.478941C3.38639 0.423892 -0.000367097 3.76908 3.5459e-05 7.86756C-0.00398825 9.16445 0.334497 10.4394 0.981266 11.5635C1.07046 11.7173 1.20168 11.8424 1.35951 11.9242C1.51734 12.0059 1.69523 12.0409 1.87227 12.0251C2.07008 12.0077 2.31634 11.9831 2.6091 11.9487C2.73653 11.9342 2.85417 11.8734 2.93962 11.7777C3.02507 11.6821 3.07237 11.5584 3.07249 11.4301V7.51406" fill="white"/>
<path d="M3.04961 13.8421C4.15171 14.6438 5.45411 15.1251 6.81273 15.2326C8.17135 15.3401 9.53323 15.0696 10.7477 14.4512C11.9622 13.8327 12.9819 12.8904 13.694 11.7284C14.4061 10.5663 14.7829 9.22998 14.7827 7.86711C14.7827 7.69698 14.7748 7.52876 14.7634 7.36145C12.0642 11.387 7.08036 13.269 3.04956 13.8423" fill="white"/>
</svg>
