<svg width="15" height="16" viewBox="0 0 15 16" fill="none" xmlns="http://www.w3.org/2000/svg">
<path d="M14.7826 7.86958C14.7826 11.9515 11.4732 15.2609 7.3913 15.2609C3.30943 15.2609 0 11.9515 0 7.86958C0 3.7877 3.30943 0.478271 7.3913 0.478271C11.474 0.478271 14.7826 3.7877 14.7826 7.86958Z" fill="white"/>
<path d="M3.64655 8.11781L3.67843 8.06768L5.60121 5.05974C5.62931 5.01571 5.69537 5.02026 5.71663 5.0681C6.03786 5.78799 6.31503 6.68332 6.18518 7.24071C6.12975 7.47005 5.97787 7.78063 5.807 8.06768C5.78498 8.10945 5.76068 8.15046 5.73486 8.18995C5.72271 8.20817 5.7022 8.2188 5.68018 8.2188H3.70274C3.64958 8.2188 3.61845 8.16109 3.64655 8.11781Z" fill="#0C0C0C"/>
<path d="M12.217 8.67688V9.15301C12.217 9.18034 12.2003 9.20464 12.176 9.21527C12.0272 9.27906 11.5176 9.51295 11.3058 9.8076C10.7651 10.5602 10.352 11.6362 9.42855 11.6362H5.57617C4.2108 11.6362 3.10437 10.526 3.10437 9.15604V9.112C3.10437 9.07555 3.13398 9.04594 3.17043 9.04594H5.31799C5.36051 9.04594 5.39164 9.08542 5.38785 9.12718C5.37266 9.26691 5.39848 9.40968 5.46455 9.53953C5.59212 9.79849 5.85639 9.96024 6.14192 9.96024H7.20507V9.13023H6.15407C6.10015 9.13023 6.06827 9.06795 6.0994 9.02391C6.11078 9.00644 6.1237 8.98823 6.13736 8.96772C6.23685 8.82648 6.37885 8.60701 6.5201 8.35717C6.61654 8.18859 6.70994 8.00861 6.78512 7.82788C6.80032 7.79523 6.81245 7.7618 6.82461 7.72915C6.84511 7.67144 6.86638 7.61752 6.88156 7.56361C6.89676 7.51804 6.9089 7.4702 6.92105 7.42539C6.95675 7.272 6.97193 7.10949 6.97193 6.94091C6.97193 6.87485 6.9689 6.80574 6.96282 6.73967C6.95978 6.66753 6.95067 6.59538 6.94155 6.52324C6.93548 6.45945 6.92409 6.39642 6.91194 6.33036C6.89676 6.23392 6.87549 6.13824 6.85119 6.04179L6.84283 6.00535C6.82461 5.93927 6.80942 5.87625 6.78817 5.81019C6.72816 5.60286 6.65907 5.40087 6.58616 5.21179C6.55958 5.1366 6.52921 5.06446 6.49883 4.99232C6.45404 4.88373 6.40846 4.78501 6.3667 4.6916C6.34544 4.64907 6.32722 4.61034 6.30899 4.57086C6.28848 4.52605 6.26723 4.48125 6.24596 4.43873C6.23077 4.40608 6.2133 4.3757 6.20115 4.34532L6.0713 4.10535C6.05307 4.0727 6.08345 4.03397 6.11914 4.04384L6.93169 4.26406H6.93397C6.93548 4.26406 6.93624 4.26483 6.937 4.26483L7.04407 4.29444L7.16178 4.32786L7.20507 4.34V3.85704C7.20507 3.6239 7.39187 3.43481 7.62273 3.43481C7.73816 3.43481 7.84295 3.4819 7.91813 3.55859C7.9933 3.6353 8.04039 3.74009 8.04039 3.85704V4.5739L8.12697 4.59819C8.1338 4.60048 8.14063 4.60351 8.1467 4.60807C8.16798 4.62402 8.19834 4.64755 8.23707 4.67642C8.26745 4.70071 8.3001 4.73033 8.33959 4.76071C8.4178 4.82373 8.51121 4.90499 8.61373 4.9984C8.64106 5.02193 8.66764 5.04624 8.69195 5.07054C8.82409 5.19356 8.97216 5.33784 9.11341 5.49731C9.1529 5.54212 9.19163 5.58768 9.23111 5.63552C9.2706 5.68412 9.31237 5.73196 9.34881 5.77981C9.39666 5.8436 9.4483 5.90966 9.4931 5.97877C9.51436 6.01142 9.53866 6.04483 9.55917 6.07749C9.61688 6.16481 9.66776 6.25519 9.71637 6.34555C9.73687 6.38732 9.75813 6.43288 9.77635 6.47768C9.83027 6.59843 9.87279 6.72145 9.90013 6.84447C9.90848 6.87105 9.91456 6.8999 9.9176 6.92573V6.9318C9.92671 6.96824 9.92975 7.00697 9.93278 7.04646C9.94493 7.17252 9.93886 7.29857 9.91153 7.42539C9.90013 7.47932 9.88495 7.53019 9.86672 7.58412C9.84849 7.63575 9.83027 7.68966 9.80673 7.74054C9.76117 7.84609 9.70724 7.95166 9.64346 8.05037C9.62295 8.08683 9.59865 8.12556 9.57435 8.16201C9.54777 8.20073 9.52044 8.23718 9.49613 8.27288C9.46273 8.31844 9.42704 8.36628 9.39059 8.40881C9.35793 8.45361 9.32452 8.49842 9.28807 8.5379C9.23719 8.59789 9.18858 8.65485 9.1377 8.70953C9.10734 8.74522 9.07468 8.78167 9.04126 8.81432C9.00862 8.85076 8.97519 8.88342 8.94482 8.9138C8.89395 8.96468 8.85142 9.00416 8.81572 9.03682L8.7322 9.11352C8.72005 9.12415 8.7041 9.13023 8.68739 9.13023H8.04039V9.96024H8.85445C9.03671 9.96024 9.20985 9.89569 9.34958 9.77722C9.39742 9.73546 9.60625 9.55473 9.85305 9.2821C9.8614 9.27298 9.87204 9.26615 9.88419 9.26312L12.1327 8.61309C12.1745 8.60094 12.217 8.63282 12.217 8.67688Z" fill="#0C0C0C"/>
</svg>
